<?xml version="1.0" encoding="iso-8859-1"?>
<!-- Generator: Adobe Illustrator 19.0.0, SVG Export Plug-In . SVG Version: 6.00 Build 0)  -->
<svg version="1.1" id="Capa_1" xmlns="http://www.w3.org/2000/svg" xmlns:xlink="http://www.w3.org/1999/xlink" x="0px" y="0px"
	 viewBox="0 0 496 496" style="enable-background:new 0 0 496 496;" xml:space="preserve">
<g>
	<g>
		<g>
			<path d="M16,64h304v16h16V40c0-22.056-17.944-40-40-40H40C17.944,0,0,17.944,0,40v360h16V64z M16,40c0-13.232,10.768-24,24-24
				h256c13.232,0,24,10.768,24,24v8H16V40z"/>
			<path d="M0,456c0,22.056,17.944,40,40,40h256c22.056,0,40-17.944,40-40v-40H0V456z M16,432h304v24c0,13.232-10.768,24-24,24H40
				c-13.232,0-24-10.768-24-24V432z"/>
			<rect x="136" y="448" width="64" height="16"/>
			<path d="M32,96v272h464V96H32z M480,352H48V112h432V352z"/>
			<rect x="320" y="384" width="16" height="16"/>
			<polygon points="192,240 176,240 176,248 160,248 160,216 176,216 176,224 192,224 192,200 144,200 144,264 192,264 			"/>
			<path d="M208,264h48v-64h-48V264z M224,216h16v32h-16V216z"/>
			<path d="M320,240v-16c0-13.232-10.768-24-24-24h-24v64h24C309.232,264,320,253.232,320,240z M288,216h8c4.408,0,8,3.592,8,8v16
				c0,4.408-3.592,8-8,8h-8V216z"/>
			<polygon points="336,264 384,264 384,248 352,248 352,240 384,240 384,224 352,224 352,216 384,216 384,200 336,200 			"/>
			<rect x="144" y="168" width="16" height="16"/>
			<rect x="176" y="168" width="32" height="16"/>
			<rect x="224" y="168" width="48" height="16"/>
			<rect x="288" y="168" width="16" height="16"/>
			<rect x="320" y="168" width="32" height="16"/>
			<rect x="368" y="168" width="16" height="16"/>
			<rect x="144" y="136" width="32" height="16"/>
			<rect x="192" y="136" width="32" height="16"/>
			<rect x="240" y="136" width="16" height="16"/>
			<rect x="272" y="136" width="16" height="16"/>
			<rect x="304" y="136" width="32" height="16"/>
			<rect x="352" y="136" width="32" height="16"/>
			<rect x="144" y="280" width="32" height="16"/>
			<rect x="192" y="280" width="16" height="16"/>
			<rect x="224" y="280" width="16" height="16"/>
			<rect x="256" y="280" width="32" height="16"/>
			<rect x="304" y="280" width="32" height="16"/>
			<rect x="352" y="280" width="32" height="16"/>
			<rect x="144" y="312" width="16" height="16"/>
			<rect x="176" y="312" width="48" height="16"/>
			<rect x="240" y="312" width="16" height="16"/>
			<rect x="272" y="312" width="32" height="16"/>
			<rect x="368" y="312" width="16" height="16"/>
			<rect x="320" y="312" width="32" height="16"/>
		</g>
	</g>
</g>
<g>
</g>
<g>
</g>
<g>
</g>
<g>
</g>
<g>
</g>
<g>
</g>
<g>
</g>
<g>
</g>
<g>
</g>
<g>
</g>
<g>
</g>
<g>
</g>
<g>
</g>
<g>
</g>
<g>
</g>
</svg>
