<svg id="_x33_0" enable-background="new 0 0 64 64" height="512" viewBox="0 0 64 64" width="512" xmlns="http://www.w3.org/2000/svg"><g><g><g><path d="m36 36h8v6h-8z" fill="#aab2bd"/></g><g><path d="m60 30v5c0 .55-.45 1-1 1h-15-8-4l-.16-.06c.11-.29.16-.61.16-.94v-4c0-.33-.05-.65-.16-.94l.16-.06h14.45z" fill="#ccd1d9"/></g><g><path d="m60 22v8h-13.55c-.13-.28-.27-.54-.44-.8l-.01-8.16c.02.53.46.96 1 .96h3v2.59c0 .78.63 1.41 1.41 1.41.38 0 .74-.15 1-.41l3.59-3.59z" fill="#69d6f4"/></g><g><path d="m60 5v9h-13c-.55 0-1 .45-1 1v2c0-2.48-1.01-4.74-2.64-6.36-1.62-1.63-3.88-2.64-6.36-2.64-4.97 0-9 4.03-9 9v6c0-.55-.45-1-1-1h-7v-8h1c.55 0 1-.45 1-1v-9h37c.55 0 1 .45 1 1z" fill="#69d6f4"/></g><g><path d="m22 4v9c0 .55-.45 1-1 1h-1-4v2.59c0 .78-.63 1.41-1.41 1.41-.38 0-.74-.15-1-.41l-3.59-3.59h-7c-.55 0-1-.45-1-1v-10c0-.55.45-1 1-1h18c.55 0 1 .45 1 1z" fill="#ffeaa7"/></g><g><path d="m62 15v6c0 .55-.45 1-1 1h-1-4l-3.59 3.59c-.26.26-.62.41-1 .41-.78 0-1.41-.63-1.41-1.41v-2.59h-3c-.54 0-.98-.43-1-.96 0-.01 0-.03 0-.04v-4-2c0-.55.45-1 1-1h13 1c.55 0 1 .45 1 1z" fill="#ffeaa7"/></g><g><path d="m37 13c-1.32 1.32-2.92 2.31-4.68 2.89l-.32.11v3c0 1.91 1.07 3.57 2.65 4.41l-.65 2.59-2.35.59c-.98.24-1.89.73-2.64 1.41h-.01-1v-5-6c0-4.97 4.03-9 9-9 2.48 0 4.74 1.01 6.36 2.64 1.63 1.62 2.64 3.88 2.64 6.36v4 .04l.01 8.16c-.23-.36-.5-.69-.81-1-.78-.78-1.77-1.34-2.85-1.61l-2.35-.59-.65-2.59c.44-.23.84-.52 1.19-.87.9-.91 1.46-2.16 1.46-3.54v-3l-.32-.11c-1.76-.58-3.36-1.57-4.68-2.89z" fill="#656d78"/></g><g><path d="m46.45 30h-14.45l-.16.06c-.38-1.2-1.5-2.06-2.83-2.06.75-.68 1.66-1.17 2.64-1.41l2.35-.59.65-2.59c.7.38 1.5.59 2.35.59s1.65-.21 2.35-.59l.65 2.59 2.35.59c1.08.27 2.07.83 2.85 1.61.31.31.58.64.81 1 .17.26.31.52.44.8z" fill="#f0d0b4"/></g><g><path d="m42 16v3c0 1.38-.56 2.63-1.46 3.54-.35.35-.75.64-1.19.87-.7.38-1.5.59-2.35.59s-1.65-.21-2.35-.59c-1.58-.84-2.65-2.5-2.65-4.41v-3l.32-.11c1.76-.58 3.36-1.57 4.68-2.89 1.32 1.32 2.92 2.31 4.68 2.89z" fill="#f0d0b4"/></g><g><path d="m28 62h-20-6v-3c0-6.08 4.92-11 11-11h10c6.08 0 11 4.92 11 11v3z" fill="#b4dd7f"/></g><g><path d="m22 44 1 4h-10l1-4z" fill="#a0d468"/></g><g><path d="m32 31v4c0 .33-.05.65-.16.94-.39 1.2-1.51 2.06-2.84 2.06h-2l-.39-.17c.91-2.06 1.39-4.33 1.39-6.64v-3.19h1 .01c1.33 0 2.45.86 2.83 2.06.11.29.16.61.16.94z" fill="#f0d0b4"/></g><g><path d="m28 28v3.19c0 2.31-.48 4.58-1.39 6.64-.06.15-.12.29-.19.43-1.02 2.19-2.52 4.16-4.42 5.74h-8c-2.02-1.69-3.59-3.81-4.61-6.17-.91-2.06-1.39-4.33-1.39-6.64v-3.19c0-3.31 2.69-6 6-6h6 7c.55 0 1 .45 1 1z" fill="#b27946"/></g><g><path d="m9.39 37.83-.39.17h-2c-1.66 0-3-1.34-3-3v-4c0-1.66 1.34-3 3-3h1v3.19c0 2.31.48 4.58 1.39 6.64z" fill="#f0d0b4"/></g></g><g><path d="m7 7h2v2h-2z"/><path d="m11 7h2v2h-2z"/><path d="m15 7h2v2h-2z"/><path d="m57 17h2v2h-2z"/><path d="m53 17h2v2h-2z"/><path d="m49 17h2v2h-2z"/><path d="m61 13v-8c0-1.103-.897-2-2-2h-36c0-1.103-.897-2-2-2h-18c-1.103 0-2 .897-2 2v10c0 1.103.897 2 2 2h6.586l3.293 3.293c.449.449 1.071.707 1.707.707 1.331 0 2.414-1.083 2.414-2.414v-1.586h2v6h-5c-3.519 0-6.432 2.614-6.92 6h-.08c-2.206 0-4 1.794-4 4v4c0 2.206 1.794 4 4 4h1.831c.986 2 2.357 3.805 4.056 5.329l-.677 2.711c-6.249.41-11.21 5.61-11.21 11.96v4h34v-4c0-6.35-4.961-11.55-11.21-11.96l-.678-2.711c1.7-1.524 3.071-3.329 4.057-5.329h1.831c1.474 0 2.75-.81 3.444-2h2.556v4h-4v2h18v-2h-4v-4h14c1.103 0 2-.897 2-2v-12c1.103 0 2-.897 2-2v-6c0-1.103-.897-2-2-2zm-46 0v3.586c0 .337-.47.532-.707.293l-3.879-3.879h-7.414v-10h18l.002 10zm6 2c1.103 0 2-.897 2-2v-8h36v8h-12c-.273 0-.534.056-.771.155-1.51-3.61-5.077-6.155-9.229-6.155-5.514 0-10 4.486-10 10v4h-6zm12 4v-2.285c1.458-.536 2.821-1.338 4-2.352 1.179 1.014 2.541 1.815 4 2.352v2.285c0 2.206-1.794 4-4 4s-4-1.794-4-4zm10 0v-3.722l-1.001-.332c-1.484-.495-2.853-1.327-3.999-2.393v-1.553h-2v1.554c-1.146 1.066-2.515 1.898-3.998 2.392l-1.002.332v3.722c0 2.003.99 3.775 2.503 4.866l-.327 1.31-1.769.442c-.864.216-1.683.596-2.407 1.111v-9.729c0-4.411 3.589-8 8-8s8 3.589 8 8h.002l.003 4h-.005c0 .05.002.1.006.149l.005 5.598c-.728-.521-1.543-.911-2.418-1.129l-1.769-.442-.327-1.31c1.513-1.091 2.503-2.863 2.503-4.866zm-36 18c-1.103 0-2-.897-2-2v-4c0-1.103.897-2 2-2v2.189c0 2.007.342 3.966.983 5.811zm14.22 8 .5 2h-7.44l.5-2zm11.78 14v2h-4v-4h-2v4h-18v-4h-2v4h-4v-2c0-5.514 4.486-10 10-10h10c5.514 0 10 4.486 10 10zm-11.368-16h-7.264c-3.416-2.979-5.368-7.264-5.368-11.811v-3.189c0-2.757 2.243-5 5-5l13-.002v8.191c0 4.547-1.952 8.832-5.368 11.811zm9.368-8c0 1.103-.897 2-2 2h-.983c.641-1.845.983-3.804.983-5.811v-2.189c1.103 0 2 .897 2 2zm.307-7.257c.191-.073.386-.136.585-.185l2.933-.733.516-2.063c.527.152 1.083.238 1.659.238s1.132-.086 1.66-.239l.516 2.063 2.933.733c.903.226 1.729.693 2.387 1.352.028.028.049.062.076.091h-12.128c-.289-.495-.672-.926-1.137-1.257zm11.693 13.257h-6v-4h6zm-10-6v-4h26v4zm26-6h-11.974c-.005-.008-.009-.016-.014-.025l-.005-5.975h1.993v1.586c0 1.331 1.083 2.414 2.414 2.414.636 0 1.258-.258 1.707-.707l3.293-3.293h2.586zm2-8h-5.414l-3.879 3.879c-.237.238-.707.045-.707-.293v-3.586h-1l-2.995.002-.005-6.002h14z"/></g></g></svg>