<?xml version="1.0" encoding="iso-8859-1"?>
<!-- Generator: Adobe Illustrator 19.0.0, SVG Export Plug-In . SVG Version: 6.00 Build 0)  -->
<svg version="1.1" id="Capa_1" xmlns="http://www.w3.org/2000/svg" xmlns:xlink="http://www.w3.org/1999/xlink" x="0px" y="0px"
	 viewBox="0 0 60 60" style="enable-background:new 0 0 60 60;" xml:space="preserve">
<g>
	<g>
		<path d="M59,0H1C0.4,0,0,0.4,0,1v58c0,0.6,0.4,1,1,1h23h12h23c0.6,0,1-0.4,1-1V1C60,0.4,59.6,0,59,0z M7,49h12v-2H7V29h9v-2H7V16
			h16v-2H7V7h46v7H37v2h16v11h-9v2h9v18H41v2h12v9H37V44h3c0.6,0,1-0.4,1-1v-5c0-0.6-0.4-1-1-1h-2.5l3.5-8.8
			c0.1-0.3,0.1-0.6-0.1-0.9l-10-15.8c-0.4-0.6-1.3-0.6-1.7,0l-10,15.8c-0.2,0.3-0.2,0.6-0.1,0.9l3.5,8.8H20c-0.6,0-1,0.4-1,1v5
			c0,0.6,0.4,1,1,1h3v14H7L7,49L7,49z M29,27h-2v2h6v-2h-2V15.5l7.9,12.4L35.3,37H24.7l-3.6-9.1L29,15.5L29,27L29,27z M25,58V44h7
			v-2h-8h-3v-3h3h12h3v3h-3c-0.6,0-1,0.4-1,1v15H25z M58,58h-3V28V6c0-0.6-0.4-1-1-1H6C5.4,5,5,5.4,5,6v22v30H2V2h56V58z"/>
		<rect x="10" y="9" width="4" height="2"/>
		<rect x="17" y="9" width="4" height="2"/>
	</g>
</g>
<g>
</g>
<g>
</g>
<g>
</g>
<g>
</g>
<g>
</g>
<g>
</g>
<g>
</g>
<g>
</g>
<g>
</g>
<g>
</g>
<g>
</g>
<g>
</g>
<g>
</g>
<g>
</g>
<g>
</g>
</svg>
