<?xml version="1.0" encoding="iso-8859-1"?>
<!-- Generator: Adobe Illustrator 19.0.0, SVG Export Plug-In . SVG Version: 6.00 Build 0)  -->
<svg version="1.1" id="Capa_1" xmlns="http://www.w3.org/2000/svg" xmlns:xlink="http://www.w3.org/1999/xlink" x="0px" y="0px"
	 viewBox="0 0 512.001 512.001" style="enable-background:new 0 0 512.001 512.001;" xml:space="preserve">
<path style="fill:#8CBAFA;" d="M236.386,7.5l-48.861,182.35l-69.737,6.097c-40.606,3.546-70.652,39.346-67.099,79.965
	c3.555,40.609,39.358,70.645,79.965,67.099l96.81-8.47l43.28-3.789c12.654-1.108,23.264-10.011,26.552-22.281l35.183-131.303
	L368.46,42.89L236.386,7.5z"/>
<path style="fill:#5692D8;" d="M344.461,36.458l-32.185,120.115l-35.183,131.303c-3.287,12.269-13.897,21.173-26.552,22.281
	l-43.28,3.789l-96.81,8.47c-17.673,1.543-34.432-3.279-48.023-12.561c14.418,22.021,40.173,35.605,68.227,33.155l96.81-8.47
	l43.28-3.789c12.654-1.108,23.264-10.011,26.552-22.281l35.183-131.303l35.98-134.278L344.461,36.458z"/>
<path style="fill:#E9E9EA;" d="M123.237,195.47l-5.447,0.476c-40.606,3.546-70.652,39.346-67.099,79.965
	c3.555,40.609,39.358,70.645,79.966,67.099l5.439-0.476c19.596-19.36,30.742-46.976,28.154-76.562
	C161.66,236.392,145.891,211.133,123.237,195.47z"/>
<path style="fill:#C9C8CD;" d="M153.759,318.627l-43.308,3.789c-17.673,1.543-34.432-3.279-48.023-12.561l0,0
	c0.269,0.411,0.551,0.814,0.828,1.219c0.301,0.441,0.606,0.879,0.916,1.313c0.298,0.416,0.597,0.83,0.904,1.24
	c0.371,0.496,0.752,0.984,1.135,1.47c0.442,0.561,0.893,1.116,1.351,1.664c0.363,0.434,0.728,0.866,1.1,1.292
	c0.33,0.377,0.664,0.75,1.001,1.12c0.391,0.429,0.79,0.85,1.191,1.27c0.454,0.475,0.913,0.944,1.379,1.406
	c0.477,0.473,0.957,0.942,1.447,1.402c0.347,0.326,0.7,0.647,1.054,0.967c0.436,0.394,0.879,0.782,1.324,1.166
	c0.328,0.283,0.654,0.57,0.987,0.848c0.701,0.582,1.413,1.15,2.135,1.706c0.346,0.267,0.697,0.525,1.047,0.786
	c0.499,0.371,1.002,0.735,1.51,1.093c0.342,0.241,0.682,0.484,1.028,0.719c0.774,0.526,1.557,1.04,2.352,1.537
	c0.316,0.198,0.638,0.387,0.957,0.58c0.583,0.353,1.17,0.698,1.763,1.035c0.344,0.196,0.689,0.392,1.037,0.582
	c0.848,0.463,1.702,0.916,2.568,1.346c0.245,0.122,0.495,0.235,0.742,0.354c0.702,0.339,1.409,0.668,2.122,0.985
	c0.337,0.15,0.676,0.298,1.016,0.443c0.798,0.34,1.601,0.668,2.412,0.981c0.199,0.077,0.396,0.157,0.596,0.232
	c0.914,0.343,1.839,0.664,2.77,0.972c0.32,0.106,0.642,0.208,0.964,0.309c0.797,0.251,1.598,0.489,2.406,0.714
	c0.227,0.063,0.453,0.132,0.681,0.193c1,0.268,2.009,0.511,3.024,0.737c0.29,0.065,0.583,0.123,0.874,0.185
	c0.825,0.173,1.654,0.332,2.488,0.477c0.264,0.046,0.527,0.096,0.792,0.139c1.046,0.17,2.098,0.319,3.156,0.444
	c0.244,0.029,0.491,0.051,0.736,0.077c0.875,0.095,1.754,0.173,2.637,0.237c0.287,0.021,0.574,0.043,0.862,0.06
	c1.086,0.065,2.176,0.111,3.273,0.129c0.162,0.003,0.326-0.001,0.489,0c0.962,0.009,1.928-0.004,2.898-0.033
	c0.3-0.009,0.599-0.019,0.9-0.031c1.122-0.047,2.246-0.11,3.376-0.209l5.439-0.476C143.169,335.545,149.135,327.474,153.759,318.627
	z"/>
<path style="fill:#FFCD34;" d="M288.279,261.581c-24.916-6.676-50.526,8.11-57.202,33.026c-3.732,13.93-0.752,28.074,6.952,39.008
	l32.717-2.864c12.654-1.108,23.264-10.011,26.552-22.281l9.846-36.748C301.893,267.067,295.518,263.521,288.279,261.581z"/>
<path style="fill:#E69012;" d="M284.369,260.722l-7.276,27.154c-3.287,12.269-13.897,21.173-26.552,22.281l-20.753,1.817
	c0.897,7.849,3.764,15.288,8.24,21.642l32.717-2.864c12.654-1.108,23.264-10.011,26.552-22.281l9.846-36.748
	c-5.251-4.655-11.626-8.201-18.866-10.14C286.977,261.232,285.673,260.956,284.369,260.722z"/>
<path style="fill:#8CBAFA;" d="M324.865,148.604v188.782l-65.783,23.939c-38.305,13.934-58.061,56.292-44.116,94.607
	c13.944,38.305,56.302,58.051,94.607,44.116l91.32-33.238l40.825-14.861c11.936-4.345,19.881-15.691,19.881-28.394V287.619V148.604
	H324.865z"/>
<path style="fill:#5692D8;" d="M436.75,148.604v124.352v135.935c0,12.702-7.944,24.049-19.881,28.394l-40.825,14.861l-91.32,33.238
	c-16.672,6.065-34.108,5.744-49.638,0.296c19.627,17.539,48.02,23.994,74.484,14.367l91.319-33.238l40.825-14.861
	c11.936-4.345,19.881-15.691,19.881-28.394V287.619V148.604H436.75z"/>
<path style="fill:#E9E9EA;" d="M264.22,359.454l-5.138,1.87c-38.305,13.934-58.061,56.292-44.116,94.607
	c13.944,38.305,56.302,58.051,94.607,44.116l5.13-1.867c13.917-23.772,17.536-53.333,7.378-81.24
	C311.925,389.037,290.157,368.72,264.22,359.454z"/>
<path style="fill:#C9C8CD;" d="M325.578,470.515l-40.852,14.869c-16.672,6.065-34.108,5.744-49.638,0.296l0,0
	c0.367,0.328,0.742,0.643,1.115,0.963c0.405,0.348,0.813,0.693,1.225,1.031c0.395,0.325,0.792,0.647,1.194,0.964
	c0.487,0.383,0.981,0.756,1.477,1.126c0.573,0.428,1.151,0.846,1.736,1.257c0.463,0.325,0.927,0.649,1.397,0.963
	c0.416,0.279,0.835,0.553,1.257,0.823c0.489,0.313,0.983,0.617,1.479,0.918c0.561,0.341,1.126,0.676,1.696,1.002
	c0.583,0.333,1.168,0.662,1.76,0.98c0.42,0.225,0.844,0.444,1.268,0.661c0.524,0.268,1.051,0.528,1.581,0.784
	c0.391,0.188,0.779,0.382,1.173,0.563c0.827,0.381,1.663,0.745,2.504,1.096c0.403,0.168,0.809,0.327,1.215,0.488
	c0.578,0.229,1.159,0.451,1.742,0.665c0.393,0.144,0.784,0.291,1.179,0.429c0.884,0.308,1.773,0.601,2.669,0.876
	c0.356,0.109,0.716,0.208,1.075,0.312c0.654,0.19,1.311,0.372,1.97,0.543c0.383,0.1,0.767,0.2,1.152,0.294
	c0.939,0.228,1.881,0.444,2.829,0.636c0.268,0.054,0.539,0.098,0.808,0.15c0.766,0.146,1.534,0.281,2.305,0.402
	c0.365,0.057,0.73,0.113,1.096,0.165c0.859,0.122,1.72,0.231,2.584,0.323c0.212,0.023,0.423,0.049,0.636,0.07
	c0.972,0.095,1.949,0.165,2.927,0.222c0.336,0.019,0.673,0.034,1.011,0.049c0.834,0.036,1.67,0.059,2.508,0.067
	c0.236,0.002,0.471,0.01,0.708,0.01c1.035,0,2.073-0.026,3.112-0.071c0.297-0.013,0.595-0.032,0.892-0.048
	c0.841-0.046,1.684-0.107,2.527-0.183c0.267-0.024,0.533-0.044,0.8-0.071c1.054-0.106,2.109-0.235,3.163-0.388
	c0.244-0.035,0.487-0.078,0.731-0.116c0.87-0.135,1.739-0.286,2.608-0.454c0.283-0.054,0.566-0.107,0.848-0.165
	c1.066-0.218,2.131-0.456,3.194-0.723c0.158-0.04,0.315-0.086,0.472-0.126c0.932-0.241,1.862-0.503,2.791-0.781
	c0.287-0.086,0.574-0.173,0.861-0.263c1.071-0.336,2.141-0.688,3.207-1.076l5.13-1.867
	C319.728,489.597,323.402,480.257,325.578,470.515z"/>
<path style="fill:#FFCD34;" d="M440.75,380.597c-25.795,0-46.705,20.911-46.705,46.705c0,14.421,6.539,27.312,16.812,35.879
	l30.861-11.234c11.936-4.345,19.881-15.691,19.881-28.394v-38.044C455.32,382.372,448.244,380.597,440.75,380.597z"/>
<path style="fill:#E69012;" d="M436.75,380.779v28.112c0,12.702-7.944,24.049-19.881,28.394l-19.576,7.126
	c2.897,7.349,7.592,13.793,13.561,18.772l30.861-11.234c11.936-4.345,19.881-15.691,19.881-28.394V385.51
	c-6.277-3.137-13.353-4.912-20.848-4.912C439.401,380.597,438.07,380.667,436.75,380.779z"/>
<path d="M136.749,350.006l101.885-8.917c0.016-0.001,0.032-0.001,0.049-0.002l32.718-2.864c10.641-0.932,20.173-6.349,26.496-14.475
	c3.029-3.89,5.326-8.398,6.65-13.338l6.262-23.39l3.578-13.356c0.009-0.035,0.012-0.07,0.02-0.105c0.068-0.27,0.119-0.54,0.157-0.81
	c0.013-0.098,0.023-0.195,0.032-0.292c0.024-0.239,0.036-0.477,0.037-0.714c0-0.073,0.004-0.145,0.002-0.218
	c-0.008-0.31-0.034-0.617-0.08-0.92c-0.008-0.051-0.02-0.1-0.028-0.15c-0.045-0.259-0.103-0.513-0.174-0.765
	c-0.021-0.074-0.042-0.148-0.065-0.222c-0.186-0.589-0.443-1.15-0.765-1.673c-0.041-0.066-0.083-0.131-0.126-0.196
	c-0.156-0.237-0.322-0.465-0.504-0.683c-0.018-0.022-0.033-0.044-0.052-0.066c-0.212-0.249-0.443-0.481-0.687-0.701
	c-0.013-0.012-0.024-0.026-0.038-0.038c-0.084-0.074-0.172-0.141-0.256-0.214c-0.045-0.037-0.088-0.076-0.134-0.112
	c-6.248-5.437-13.478-9.294-21.51-11.446c-28.867-7.734-58.652,9.459-66.388,38.329c-3.096,11.557-2.268,23.623,2.162,34.471
	l-72.492,6.344c13.802-19.728,20.355-43.735,18.218-68.163c-0.831-9.491-2.946-18.783-6.288-27.615
	c-1.466-3.874-5.795-5.827-9.669-4.361c-3.874,1.466-5.827,5.795-4.361,9.669c2.855,7.547,4.663,15.492,5.374,23.615
	c2.222,25.401-6.536,50.278-24.091,68.677l-2.042,0.179l-0.64,0.056c-18.21,1.59-35.371-4.374-48.38-15.287
	c-13.009-10.916-21.865-26.785-23.457-44.997c-1.546-17.644,3.873-34.834,15.259-48.402c11.004-13.113,26.31-21.307,43.25-23.235
	c0.589-0.067,1.174-0.146,1.766-0.198l2.691-0.235c5.87,4.323,11.185,9.35,15.826,14.971c2.636,3.193,7.364,3.645,10.559,1.009
	c3.194-2.637,3.646-7.364,1.009-10.559c-2.082-2.521-4.287-4.932-6.593-7.241l46.247-4.045c3.141-0.275,5.775-2.485,6.591-5.53
	l46.92-175.101l11.921,3.194L240.85,67.506c-1.072,4.001,1.302,8.113,5.304,9.186c0.65,0.174,1.303,0.257,1.946,0.257
	c3.311,0,6.342-2.21,7.24-5.561l12.76-47.624l11.926,3.196l-12.76,47.624c-1.072,4.001,1.302,8.113,5.303,9.186
	c0.65,0.174,1.304,0.257,1.946,0.257c3.311,0,6.342-2.21,7.239-5.561l12.76-47.624l11.926,3.196l-12.761,47.623
	c-1.072,4.001,1.302,8.114,5.303,9.186c0.65,0.174,1.304,0.257,1.946,0.257c3.311,0,6.342-2.21,7.239-5.561l12.761-47.624
	l11.926,3.196l-12.761,47.623c-1.072,4.001,1.302,8.114,5.303,9.186c0.65,0.174,1.304,0.257,1.946,0.257
	c3.312,0,6.342-2.21,7.239-5.561l12.761-47.624l11.93,3.197l-18.18,67.837c-1.072,4.001,1.302,8.114,5.303,9.186
	c4.001,1.071,8.113-1.302,9.186-5.303l20.121-75.082c0.516-1.921,0.246-3.969-0.749-5.691c-0.994-1.723-2.633-2.979-4.554-3.495
	l-26.41-7.077c-0.003-0.001-0.006-0.002-0.009-0.003s-0.006-0.001-0.009-0.002l-26.405-7.075h-0.001h-0.001L238.332,0.255
	c-1.92-0.514-3.969-0.245-5.691,0.75c-1.723,0.995-2.979,2.632-3.495,4.554l-47.502,177.274l-64.51,5.642
	c-1.105,0.097-2.2,0.229-3.294,0.369c-0.244,0.031-0.492,0.049-0.736,0.083c-0.213,0.029-0.422,0.072-0.635,0.103
	c-19.777,2.861-37.584,12.745-50.534,28.177c-13.962,16.639-20.609,37.719-18.716,59.361c1.45,16.565,7.815,31.534,17.509,43.63
	c15.036,18.767,38.107,30.599,63.442,30.599c2.362,0,4.745-0.103,7.142-0.312l2.889-0.253l2.547-0.223
	C136.748,350.007,136.749,350.006,136.749,350.006z M238.322,296.548c4.688-17.496,20.568-29.063,37.878-29.063
	c3.349,0,6.752,0.433,10.137,1.34c4.456,1.194,8.572,3.108,12.286,5.708l-3.734,13.945l-4.835,18.049
	c-0.77,2.871-2.081,5.501-3.811,7.787c-3.808,5.03-9.638,8.39-16.156,8.962l-28.158,2.464
	C236.993,316.879,235.667,306.454,238.322,296.548z"/>
<path d="M461.597,266.732c4.143,0,7.5-3.358,7.5-7.5V148.604c0-4.142-3.357-7.5-7.5-7.5H324.865c-4.143,0-7.5,3.358-7.5,7.5v183.53
	l-55.704,20.271c-0.002,0.001-0.004,0.001-0.006,0.002l-5.136,1.87c-20.41,7.424-36.706,22.355-45.885,42.039
	c-1.147,2.461-2.167,4.959-3.057,7.486c-6.233,17.694-6.158,36.833,0.343,54.696c12.006,32.981,43.269,53.505,76.498,53.504
	c9.211,0,18.577-1.578,27.722-4.904l4.303-1.566l0.827-0.301h0.001l96.135-34.993c0.006-0.002,0.012-0.003,0.017-0.005
	l30.861-11.234c4.638-1.689,8.801-4.24,12.332-7.433c7.769-7.024,12.482-17.15,12.482-28.008l0,0v-38.044v-96.403
	c0-4.142-3.357-7.5-7.5-7.5c-4.142,0-7.5,3.358-7.5,7.5v85.662c-4.328-1.101-8.785-1.674-13.347-1.674
	c-29.89,0-54.206,24.317-54.206,54.206c0,11.965,3.923,23.405,11.011,32.738l-68.383,24.891c1.243-3.423,2.31-6.912,3.188-10.456
	c0.996-4.021-1.456-8.087-5.477-9.083c-4.022-1-8.087,1.456-9.084,5.477c-1.832,7.398-4.607,14.521-8.26,21.21L307.008,493
	c-34.36,12.499-72.488-5.281-84.994-39.633c-6.059-16.648-5.273-34.657,2.213-50.712c2.339-5.016,5.245-9.654,8.643-13.845
	c7.476-9.219,17.334-16.276,28.777-20.438l1.28-0.466l1.259-0.458c23.68,9.26,42.129,28.103,50.847,52.058
	c2.711,7.447,4.412,15.188,5.057,23.005c0.34,4.128,3.976,7.192,8.091,6.858c4.129-0.34,7.199-3.963,6.858-8.091
	c-0.755-9.149-2.743-18.2-5.91-26.902c-8.384-23.039-24.466-42.025-45.308-54.073l43.608-15.869
	c2.963-1.078,4.936-3.895,4.936-7.048V156.104h12.344v49.305c0,4.142,3.357,7.5,7.5,7.5c4.143,0,7.5-3.358,7.5-7.5v-49.305h12.346
	v49.305c0,4.142,3.357,7.5,7.5,7.5c4.143,0,7.5-3.358,7.5-7.5v-49.305h12.346v49.305c0,4.142,3.358,7.5,7.5,7.5
	c4.143,0,7.5-3.358,7.5-7.5v-49.305h12.346v49.305c0,4.142,3.358,7.5,7.5,7.5c4.143,0,7.5-3.358,7.5-7.5v-49.305h12.346v103.127
	C454.097,263.374,457.455,266.732,461.597,266.732z M401.544,427.302c0-21.618,17.588-39.205,39.205-39.205
	c4.613,0,9.086,0.784,13.347,2.335v33.122c0,6.54-2.839,12.639-7.518,16.87c-2.127,1.923-4.634,3.46-7.427,4.477l-26.566,9.669
	C405.524,447.284,401.544,437.557,401.544,427.302z"/>
<g>
</g>
<g>
</g>
<g>
</g>
<g>
</g>
<g>
</g>
<g>
</g>
<g>
</g>
<g>
</g>
<g>
</g>
<g>
</g>
<g>
</g>
<g>
</g>
<g>
</g>
<g>
</g>
<g>
</g>
</svg>
