<svg height="512" viewBox="0 0 36 60" width="512" xmlns="http://www.w3.org/2000/svg"><g id="Page-1" fill="none" fill-rule="evenodd"><g id="009---Mobile-UI-Idea" fill="rgb(0,0,0)" fill-rule="nonzero"><path id="Shape" d="m4 60h28c2.209139 0 4-1.790861 4-4v-52c0-2.209139-1.790861-4-4-4h-28c-2.209139 0-4 1.790861-4 4v52c0 2.209139 1.790861 4 4 4zm28-2h-28c-1.1045695 0-2-.8954305-2-2v-1.556c.60534654.3599241 1.29574677.5518554 2 .556h28c.7042532-.0041446 1.3946535-.1960759 2-.556v1.556c0 1.1045695-.8954305 2-2 2zm-6.309-56-1.283 1.368c-.3778598.40298537-.9055734.63173367-1.458.632h-9.9c-.5526257-.00070589-1.0804819-.22935917-1.459-.632l-1.282-1.368zm-23.691 2c0-1.1045695.8954305-2 2-2h3.567l2.565 2.736c.7573847.80478557 1.8128722 1.26199467 2.918 1.264h9.9c1.105276-.00129287 2.1610336-.45861896 2.918-1.264l2.565-2.736h3.567c1.1045695 0 2 .8954305 2 2v47c0 1.1045695-.8954305 2-2 2h-28c-1.1045695 0-2-.8954305-2-2z"/><path id="Shape" d="m9.716 33.682c1.4417288 1.3337788 2.2682734 3.2039989 2.284 5.168.0013147.7347884.3786531 1.4177709 1 1.81v1.34c-.5522847 0-1 .4477153-1 1s.4477153 1 1 1c0 1.6568542 1.3431458 3 3 3h4c1.6568542 0 3-1.3431458 3-3 .5522847 0 1-.4477153 1-1s-.4477153-1-1-1v-1.34c.6213469-.3922291.9986853-1.0752116 1-1.81v-.139c.0333339-1.9158134.8565876-3.7327615 2.275-5.021 2.8762364-2.7174944 4.2170355-6.6848211 3.579-10.59-.9750879-6.1947689-6.5556027-10.5941463-12.8068454-10.0962272-6.2512427.497919-11.06498158 5.7252113-11.0471546 11.9962272-.01279985 3.2828588 1.33206282 6.4249734 3.716 8.682zm11.284 10.318c0 .5522847-.4477153 1-1 1h-4c-.5522847 0-1-.4477153-1-1 .5522847 0 1-.4477153 1-1s-.4477153-1-1-1v-1h6v1c-.5522847 0-1 .4477153-1 1s.4477153 1 1 1zm-.5-17c.8284271 0 1.5.6715729 1.5 1.5s-.6715729 1.5-1.5 1.5-1.5-.6715729-1.5-1.5.6715729-1.5 1.5-1.5zm-9.168-9.456c1.8250398-1.6456669 4.1975795-2.5526153 6.655-2.544.3908743.0000169.781456.021382 1.17.064 4.4352586.5363298 7.9861874 3.9321091 8.72 8.339.5355475 3.2577652-.579695 6.5690277-2.977 8.839-1.8188394 1.663107-2.8685259 4.0046317-2.9 6.469v.139c0 .0828427-.0671573.15-.15.15h-2.85v-7.351c.4673157.2281069.9799922.3480732 1.5.351 1.5907469.003322 2.9836603-1.0665134 3.3907568-2.6042908.4070965-1.5377773-.2740279-3.1566736-1.6580549-3.9408649-1.384027-.7841912-3.1228092-.5364165-4.2327019.6031557-1.2448365-1.2951462-3.2666323-1.4413716-4.6848803-.3388317s-1.775145 3.0979508-.8269973 4.6237416c.9481478 1.5257907 2.8952829 2.0894439 4.5118776 1.3060901v7.351h-2.85c-.0403078.0000081-.0789226-.0162066-.1071409-.0449893s-.0436653-.067711-.0428591-.1080107c-.0135699-2.5095951-1.0629482-4.9021776-2.9-6.612-1.987543-1.8804894-3.10944202-4.498857-3.1-7.235.00125318-2.8457783 1.21274675-5.5567314 3.332-7.456zm5.668 10.956c0 .8284271-.6715729 1.5-1.5 1.5s-1.5-.6715729-1.5-1.5.6715729-1.5 1.5-1.5 1.5.6715729 1.5 1.5z"/><path id="Shape" d="m7.293 13.707c.39237889.3789722 1.01608478.3735524 1.40181858-.0121814.38573379-.3857338.39115363-1.0094397.01218142-1.4018186l-2-2c-.39237889-.37897221-1.01608478-.37355237-1.40181858.0121814-.38573379.3857338-.39115363 1.0094397-.01218142 1.4018186z"/><path id="Shape" d="m28 14c.2651948-.0000566.5195073-.1054506.707-.293l2-2c.3789722-.3923789.3735524-1.0160848-.0121814-1.4018186-.3857338-.38573377-1.0094397-.39115361-1.4018186-.0121814l-2 2c-.2859079.2859943-.3714219.7160366-.216678 1.0896546.1547439.3736179.5192821.6172591.923678.6173454z"/><path id="Shape" d="m6 39c.26519481-.0000566.51950727-.1054506.707-.293l2-2c.37897221-.3923789.37355237-1.0160848-.01218142-1.4018186-.3857338-.3857338-1.00943969-.3911536-1.40181858-.0121814l-2 2c-.28590792.2859943-.37142191.7160366-.21667798 1.0896546.15474393.3736179.51928208.6172591.92367798.6173454z"/><path id="Shape" d="m28.707 35.293c-.3923789-.3789722-1.0160848-.3735524-1.4018186.0121814s-.3911536 1.0094397-.0121814 1.4018186l2 2c.3923789.3789722 1.0160848.3735524 1.4018186-.0121814s.3911536-1.0094397.0121814-1.4018186z"/><path id="Shape" d="m18 11c.5522847 0 1-.4477153 1-1v-2c0-.55228475-.4477153-1-1-1s-1 .44771525-1 1v2c0 .5522847.4477153 1 1 1z"/><path id="Shape" d="m20 49h-4c-.5522847 0-1 .4477153-1 1s.4477153 1 1 1h4c.5522847 0 1-.4477153 1-1s-.4477153-1-1-1z"/></g></g></svg>